<svg width="21" height="20" viewBox="0 0 21 20" fill="none" xmlns="http://www.w3.org/2000/svg">
<path d="M19.7885 7.99937H11.4007L19.2897 5.93626C19.4443 5.89588 19.5893 5.8256 19.7163 5.72946C19.8433 5.63333 19.9499 5.51324 20.0299 5.37612C20.1098 5.239 20.1616 5.08757 20.1822 4.93054C20.2028 4.77351 20.1918 4.61399 20.1499 4.46118L19.3261 1.46103C19.1845 0.95564 18.8477 0.525836 18.3885 0.264716C17.9293 0.00359647 17.3847 -0.0678134 16.8727 0.0659546L1.4935 4.08616C1.23727 4.15229 0.996918 4.26833 0.786476 4.4275C0.576034 4.58668 0.399722 4.78579 0.267839 5.01321C0.135707 5.23762 0.050221 5.48594 0.016411 5.74355C-0.0173989 6.00117 0.00115031 6.26288 0.0709673 6.51329L0.807976 9.19943V17.9999C0.807976 18.5304 1.02071 19.0391 1.39939 19.4142C1.77806 19.7893 2.29165 20 2.82718 20H18.9808C19.5163 20 20.0299 19.7893 20.4086 19.4142C20.7873 19.0391 21 18.5304 21 17.9999V9.19943C21 8.88116 20.8724 8.57592 20.6452 8.35086C20.4179 8.1258 20.1098 7.99937 19.7885 7.99937ZM10.59 4.19017L12.4366 5.24623L9.81665 5.93126L7.97009 4.87521L10.59 4.19017ZM17.0969 2.49008L17.4916 3.92516L15.7622 4.37718L13.9156 3.32012L17.0969 2.49008ZM4.64446 5.74525L6.49102 6.79931L2.91703 7.73436L2.5243 6.29928L4.64446 5.74525ZM18.577 17.5999H3.23102V10.3995H18.577V17.5999Z" fill="black"/>
</svg>
