<svg width="29" height="28" viewBox="0 0 29 28" fill="none" xmlns="http://www.w3.org/2000/svg">
<path fill-rule="evenodd" clip-rule="evenodd" d="M12.9784 0.882528C13.1335 0.614002 13.3556 0.391199 13.6227 0.236345C13.8898 0.0814914 14.1925 0 14.5005 0C14.8086 0 15.1112 0.0814914 15.3783 0.236345C15.6454 0.391199 15.8676 0.614002 16.0227 0.882528L19.962 7.70517L27.6123 9.37741C27.9133 9.44338 28.1918 9.58779 28.4202 9.79623C28.6485 10.0047 28.8188 10.2699 28.9139 10.5654C29.009 10.8609 29.0257 11.1764 28.9622 11.4804C28.8988 11.7844 28.7575 12.0664 28.5524 12.2981L23.3376 18.1865L24.1268 26.043C24.158 26.3523 24.1081 26.6645 23.9823 26.9483C23.8564 27.2322 23.659 27.4778 23.4096 27.6605C23.1603 27.8433 22.8678 27.9569 22.5613 27.9899C22.2549 28.023 21.9452 27.9743 21.6632 27.8489L14.5005 24.6636L7.33787 27.8489C7.05587 27.9743 6.74618 28.023 6.43972 27.9899C6.13327 27.9569 5.84076 27.8433 5.59142 27.6605C5.34208 27.4778 5.14462 27.2322 5.01877 26.9483C4.89292 26.6645 4.84307 26.3523 4.87421 26.043L5.66348 18.1865L0.448639 12.2996C0.243185 12.0678 0.101578 11.7858 0.0379541 11.4815C-0.0256693 11.1773 -0.00908294 10.8616 0.0860573 10.5658C0.181198 10.2701 0.351563 10.0047 0.580146 9.79618C0.808729 9.58764 1.08753 9.44325 1.38872 9.37741L9.03904 7.70517L12.9784 0.882528ZM14.5005 3.89569L11.2405 9.54378C11.1173 9.75696 10.9514 9.94191 10.7533 10.0868C10.5553 10.2318 10.3296 10.3335 10.0905 10.3856L3.75936 11.7692L8.075 16.6423C8.4048 17.0148 8.56406 17.5097 8.51473 18.006L7.86217 24.5086L13.7902 21.8723C14.014 21.7728 14.2559 21.7214 14.5005 21.7214C14.7451 21.7214 14.987 21.7728 15.2109 21.8723L21.1389 24.5086L20.4863 18.006C20.4615 17.7604 20.4877 17.5123 20.5632 17.2776C20.6386 17.0428 20.7617 16.8264 20.9247 16.6423L25.2417 11.7692L18.9106 10.3856C18.6715 10.3335 18.4457 10.2318 18.2477 10.0868C18.0497 9.94191 17.8838 9.75696 17.7605 9.54378L14.5005 3.89569Z" fill="black"/>
</svg>
