<svg width="24" height="18" viewBox="0 0 24 18" fill="none" xmlns="http://www.w3.org/2000/svg">
<path fill-rule="evenodd" clip-rule="evenodd" d="M1.125 0C0.826631 0 0.540483 0.118526 0.329505 0.329505C0.118526 0.540483 0 0.826631 0 1.125L0 3.375C0 3.67337 0.118526 3.95952 0.329505 4.1705C0.540483 4.38147 0.826631 4.5 1.125 4.5C1.42337 4.5 1.70952 4.38147 1.9205 4.1705C2.13147 3.95952 2.25 3.67337 2.25 3.375V2.25H6.375V15.75H5.625C5.32663 15.75 5.04048 15.8685 4.8295 16.0795C4.61853 16.2905 4.5 16.5766 4.5 16.875C4.5 17.1734 4.61853 17.4595 4.8295 17.6705C5.04048 17.8815 5.32663 18 5.625 18H9.375C9.67337 18 9.95952 17.8815 10.1705 17.6705C10.3815 17.4595 10.5 17.1734 10.5 16.875C10.5 16.5766 10.3815 16.2905 10.1705 16.0795C9.95952 15.8685 9.67337 15.75 9.375 15.75H8.625V2.25H12.75V3.375C12.75 3.67337 12.8685 3.95952 13.0795 4.1705C13.2905 4.38147 13.5766 4.5 13.875 4.5C14.1734 4.5 14.4595 4.38147 14.6705 4.1705C14.8815 3.95952 15 3.67337 15 3.375V1.125C15 0.826631 14.8815 0.540483 14.6705 0.329505C14.4595 0.118526 14.1734 0 13.875 0H1.125ZM12 8.625C12 8.32663 12.1185 8.04048 12.3295 7.8295C12.5405 7.61853 12.8266 7.5 13.125 7.5H22.875C23.1734 7.5 23.4595 7.61853 23.6705 7.8295C23.8815 8.04048 24 8.32663 24 8.625C24 8.92337 23.8815 9.20952 23.6705 9.42049C23.4595 9.63147 23.1734 9.75 22.875 9.75H13.125C12.8266 9.75 12.5405 9.63147 12.3295 9.42049C12.1185 9.20952 12 8.92337 12 8.625ZM12 13.875C12 13.5766 12.1185 13.2905 12.3295 13.0795C12.5405 12.8685 12.8266 12.75 13.125 12.75H22.875C23.1734 12.75 23.4595 12.8685 23.6705 13.0795C23.8815 13.2905 24 13.5766 24 13.875C24 14.1734 23.8815 14.4595 23.6705 14.6705C23.4595 14.8815 23.1734 15 22.875 15H13.125C12.8266 15 12.5405 14.8815 12.3295 14.6705C12.1185 14.4595 12 14.1734 12 13.875Z" fill="black"/>
</svg>
